<svg width="22" height="22" viewBox="0 0 22 22" fill="none" xmlns="http://www.w3.org/2000/svg">
<g clip-path="url(#clip0_2_35)">
<path d="M22 4.17725C21.1906 4.53658 20.3207 4.77858 19.4077 4.88767C20.3399 4.32942 21.0558 3.44483 21.3923 2.39067C20.5205 2.90767 19.5543 3.2835 18.5258 3.48608C17.7036 2.60883 16.5293 2.06067 15.2313 2.06067C12.3172 2.06067 10.1759 4.7795 10.8341 7.60192C7.084 7.414 3.75833 5.61733 1.53175 2.88658C0.34925 4.91517 0.9185 7.56892 2.92783 8.91275C2.189 8.88892 1.49233 8.68633 0.884583 8.34808C0.835083 10.439 2.33383 12.3952 4.5045 12.8306C3.86925 13.0029 3.1735 13.0433 2.46583 12.9076C3.03967 14.7006 4.70617 16.005 6.6825 16.0417C4.785 17.5294 2.39433 18.194 0 17.9117C1.99742 19.1923 4.37067 19.9393 6.919 19.9393C15.2992 19.9393 20.0338 12.8617 19.7477 6.51383C20.6296 5.87675 21.395 5.082 22 4.17725Z" fill="#009FED"/>
</g>
<defs>
<clipPath id="clip0_2_35">
<rect width="22" height="22" fill="white"/>
</clipPath>
</defs>
</svg>
